<mxfile host="app.diagrams.net" agent="Mozilla/5.0 (Windows NT 10.0; Win64; x64) AppleWebKit/537.36 (KHTML, like Gecko) Chrome/131.0.0.0 Safari/537.36" version="26.0.3">
  <diagram name="Page-1" id="r8O2QDhaZeve9ij8PzjR">
    <mxGraphModel dx="1900" dy="522" grid="1" gridSize="10" guides="1" tooltips="1" connect="1" arrows="1" fold="1" page="1" pageScale="1" pageWidth="850" pageHeight="1100" math="0" shadow="0">
      <root>
        <mxCell id="0" />
        <mxCell id="1" parent="0" />
        <mxCell id="Z0j3BM8eAVYjfzLfSYt4-1" value="" style="ellipse;html=1;shape=endState;fillColor=#000000;strokeColor=#000000;" vertex="1" parent="1">
          <mxGeometry x="630" y="380" width="30" height="30" as="geometry" />
        </mxCell>
        <mxCell id="Z0j3BM8eAVYjfzLfSYt4-2" value="" style="ellipse;whiteSpace=wrap;html=1;aspect=fixed;" vertex="1" parent="1">
          <mxGeometry x="388" y="28" width="25" height="25" as="geometry" />
        </mxCell>
        <mxCell id="Z0j3BM8eAVYjfzLfSYt4-3" value="" style="rhombus;whiteSpace=wrap;html=1;" vertex="1" parent="1">
          <mxGeometry x="376" y="80" width="49" height="40" as="geometry" />
        </mxCell>
        <mxCell id="Z0j3BM8eAVYjfzLfSYt4-4" value="" style="endArrow=classic;html=1;rounded=0;exitX=0;exitY=0.5;exitDx=0;exitDy=0;entryX=0.5;entryY=0;entryDx=0;entryDy=0;" edge="1" parent="1" source="Z0j3BM8eAVYjfzLfSYt4-3" target="Z0j3BM8eAVYjfzLfSYt4-6">
          <mxGeometry width="50" height="50" relative="1" as="geometry">
            <mxPoint x="290" y="230" as="sourcePoint" />
            <mxPoint x="100" y="160" as="targetPoint" />
            <Array as="points">
              <mxPoint x="-80" y="100" />
            </Array>
          </mxGeometry>
        </mxCell>
        <mxCell id="Z0j3BM8eAVYjfzLfSYt4-5" value="[uc-1 obtain path]" style="text;html=1;align=center;verticalAlign=middle;resizable=0;points=[];autosize=1;strokeColor=none;fillColor=none;" vertex="1" parent="1">
          <mxGeometry x="110" y="60" width="120" height="30" as="geometry" />
        </mxCell>
        <mxCell id="Z0j3BM8eAVYjfzLfSYt4-6" value="requesting path" style="rounded=1;whiteSpace=wrap;html=1;" vertex="1" parent="1">
          <mxGeometry x="-140" y="399" width="120" height="60" as="geometry" />
        </mxCell>
        <mxCell id="Z0j3BM8eAVYjfzLfSYt4-7" value="" style="endArrow=classic;html=1;rounded=0;exitX=0.5;exitY=1;exitDx=0;exitDy=0;" edge="1" parent="1" source="Z0j3BM8eAVYjfzLfSYt4-6">
          <mxGeometry width="50" height="50" relative="1" as="geometry">
            <mxPoint x="130" y="350" as="sourcePoint" />
            <mxPoint x="-80" y="560" as="targetPoint" />
          </mxGeometry>
        </mxCell>
        <mxCell id="Z0j3BM8eAVYjfzLfSYt4-8" value="requestNewPath()[bus entity reply noPathHistory()]" style="text;html=1;align=center;verticalAlign=middle;resizable=0;points=[];autosize=1;strokeColor=none;fillColor=none;" vertex="1" parent="1">
          <mxGeometry x="-210" y="480" width="290" height="30" as="geometry" />
        </mxCell>
        <mxCell id="Z0j3BM8eAVYjfzLfSYt4-10" value="" style="endArrow=classic;html=1;rounded=0;exitX=0;exitY=1;exitDx=0;exitDy=0;" edge="1" parent="1" source="Z0j3BM8eAVYjfzLfSYt4-3">
          <mxGeometry width="50" height="50" relative="1" as="geometry">
            <mxPoint x="270" y="250" as="sourcePoint" />
            <mxPoint x="240" y="150" as="targetPoint" />
            <Array as="points">
              <mxPoint x="240" y="110" />
            </Array>
          </mxGeometry>
        </mxCell>
        <mxCell id="Z0j3BM8eAVYjfzLfSYt4-11" value="[uc-2 perform autonomous drive]" style="text;html=1;align=center;verticalAlign=middle;resizable=0;points=[];autosize=1;strokeColor=none;fillColor=none;" vertex="1" parent="1">
          <mxGeometry x="153" y="110" width="200" height="30" as="geometry" />
        </mxCell>
        <mxCell id="Z0j3BM8eAVYjfzLfSYt4-12" value="start-up" style="rounded=1;whiteSpace=wrap;html=1;" vertex="1" parent="1">
          <mxGeometry x="180" y="150" width="120" height="60" as="geometry" />
        </mxCell>
        <mxCell id="Z0j3BM8eAVYjfzLfSYt4-13" value="" style="endArrow=classic;html=1;rounded=0;exitX=0.5;exitY=1;exitDx=0;exitDy=0;" edge="1" parent="1" source="Z0j3BM8eAVYjfzLfSYt4-12">
          <mxGeometry width="50" height="50" relative="1" as="geometry">
            <mxPoint x="270" y="270" as="sourcePoint" />
            <mxPoint x="240" y="240" as="targetPoint" />
          </mxGeometry>
        </mxCell>
        <mxCell id="Z0j3BM8eAVYjfzLfSYt4-14" value="" style="rounded=1;whiteSpace=wrap;html=1;" vertex="1" parent="1">
          <mxGeometry x="160" y="240" width="160" height="90" as="geometry" />
        </mxCell>
        <mxCell id="Z0j3BM8eAVYjfzLfSYt4-15" value="" style="line;strokeWidth=1;fillColor=none;align=left;verticalAlign=middle;spacingTop=-1;spacingLeft=3;spacingRight=3;rotatable=0;labelPosition=right;points=[];portConstraint=eastwest;strokeColor=inherit;" vertex="1" parent="1">
          <mxGeometry x="160" y="273" width="160" height="8" as="geometry" />
        </mxCell>
        <mxCell id="Z0j3BM8eAVYjfzLfSYt4-16" value="checking bus status" style="text;html=1;align=center;verticalAlign=middle;resizable=0;points=[];autosize=1;strokeColor=none;fillColor=none;" vertex="1" parent="1">
          <mxGeometry x="175" y="243" width="130" height="30" as="geometry" />
        </mxCell>
        <mxCell id="Z0j3BM8eAVYjfzLfSYt4-17" value="obtainBusStatus()" style="text;html=1;align=center;verticalAlign=middle;resizable=0;points=[];autosize=1;strokeColor=none;fillColor=none;" vertex="1" parent="1">
          <mxGeometry x="232" y="210" width="120" height="30" as="geometry" />
        </mxCell>
        <mxCell id="Z0j3BM8eAVYjfzLfSYt4-18" value="entry/checkSensor()" style="text;html=1;align=center;verticalAlign=middle;resizable=0;points=[];autosize=1;strokeColor=none;fillColor=none;" vertex="1" parent="1">
          <mxGeometry x="156" y="273" width="130" height="30" as="geometry" />
        </mxCell>
        <mxCell id="Z0j3BM8eAVYjfzLfSYt4-21" value="" style="endArrow=classic;html=1;rounded=0;exitX=0.5;exitY=1;exitDx=0;exitDy=0;entryX=0.5;entryY=0;entryDx=0;entryDy=0;" edge="1" parent="1" source="Z0j3BM8eAVYjfzLfSYt4-14">
          <mxGeometry width="50" height="50" relative="1" as="geometry">
            <mxPoint x="30" y="340" as="sourcePoint" />
            <mxPoint x="240" y="360" as="targetPoint" />
          </mxGeometry>
        </mxCell>
        <mxCell id="Z0j3BM8eAVYjfzLfSYt4-22" value="[received sensor status]" style="text;html=1;align=center;verticalAlign=middle;resizable=0;points=[];autosize=1;strokeColor=none;fillColor=none;" vertex="1" parent="1">
          <mxGeometry x="231" y="329" width="150" height="30" as="geometry" />
        </mxCell>
        <mxCell id="Z0j3BM8eAVYjfzLfSYt4-23" value="" style="rhombus;whiteSpace=wrap;html=1;" vertex="1" parent="1">
          <mxGeometry x="215.5" y="359" width="49" height="40" as="geometry" />
        </mxCell>
        <mxCell id="Z0j3BM8eAVYjfzLfSYt4-24" value="" style="endArrow=classic;html=1;rounded=0;edgeStyle=orthogonalEdgeStyle;exitX=1;exitY=0.5;exitDx=0;exitDy=0;" edge="1" parent="1" source="Z0j3BM8eAVYjfzLfSYt4-23">
          <mxGeometry width="50" height="50" relative="1" as="geometry">
            <mxPoint x="270" y="380" as="sourcePoint" />
            <mxPoint x="360" y="440" as="targetPoint" />
          </mxGeometry>
        </mxCell>
        <mxCell id="Z0j3BM8eAVYjfzLfSYt4-25" value="start-up" style="rounded=1;whiteSpace=wrap;html=1;" vertex="1" parent="1">
          <mxGeometry x="305" y="440" width="120" height="60" as="geometry" />
        </mxCell>
        <mxCell id="Z0j3BM8eAVYjfzLfSYt4-26" value="[at least one sensor not working]" style="text;html=1;align=center;verticalAlign=middle;resizable=0;points=[];autosize=1;strokeColor=none;fillColor=none;" vertex="1" parent="1">
          <mxGeometry x="280" y="388" width="200" height="30" as="geometry" />
        </mxCell>
      </root>
    </mxGraphModel>
  </diagram>
</mxfile>
